<svg width="500" height="500" viewBox="0 0 500 500" xmlns="http://www.w3.org/2000/svg" xmlns:xlink="http://www.w3.org/1999/xlink"><defs><path d="M57.66 157.996c-.917-1.38-.564-3.28.776-4.24l28.628-20.51c1.345-.965 3.35-.75 4.468.466L168.5 217.5 383.882 1.623c1.17-1.173 3.1-1.208 4.31-.078l25.115 23.41c1.21 1.13 1.344 3.092.305 4.374L172.888 326.17c-1.043 1.287-2.63 1.214-3.547-.166L57.66 157.996z" id="a"/><mask id="b" x="-7" y="-7" width="371.162" height="341.78"><path fill="#fff" d="M50.15-6.28h371.16V335.5H50.15z"/><use xlink:href="#a"/></mask></defs><g fill="none" fill-rule="evenodd"><path fill="#FFF" d="M183 84h72l-10.5 363.5H183"/><path d="M211.5 56.5s-74 57-167 64c-1.5 0-1.5 159-1.5 159 0 115 166 181 166 181" stroke="#979797" stroke-width="30" stroke-linecap="round" fill="#FFF"/><path d="M210 57s74 57 167 64c1.5 0 1.5 159 1.5 159 0 115-166 180-166 180" stroke="#979797" stroke-width="30" stroke-linecap="round" fill="#FFF"/><g transform="translate(43 39)"><use fill="#90BD49" xlink:href="#a"/><use stroke="#FFF" mask="url(#b)" stroke-width="14" xlink:href="#a"/></g></g></svg>