<?xml version="1.0" encoding="UTF-8"?>
<svg width="248px" height="35px" viewBox="0 0 248 35" version="1.1" xmlns="http://www.w3.org/2000/svg" xmlns:xlink="http://www.w3.org/1999/xlink">
    <!-- Generator: Sketch 43.2 (39069) - http://www.bohemiancoding.com/sketch -->
    <title>Logo Hr White 2000png</title>
    <desc>Created with Sketch.</desc>
    <defs>
        <polyline id="path-1" points="0 0.0170957723 38.9527171 0.0170957723 38.9527171 34.6716915 0 34.6716915"></polyline>
        <polyline id="path-3" points="0 0.0170957723 38.9527171 0.0170957723 38.9527171 34.6716915 0 34.6716915"></polyline>
        <polyline id="path-5" points="0 0.0170957723 38.9527171 0.0170957723 38.9527171 34.6716915 0 34.6716915"></polyline>
        <polyline id="path-7" points="0 0.0170957723 38.9527171 0.0170957723 38.9527171 34.6716915 0 34.6716915"></polyline>
    </defs>
    <g id="Page-1" stroke="none" stroke-width="1" fill="none" fill-rule="evenodd">
        <g id="Logo-Hr-White-2000png" transform="translate(-2.000000, 0.000000)">
            <path d="M37.4160514,28.7326202 L40.0781074,28.3550479 L40.0781074,14.4283433 L37.2614568,14.4283433 L37.2614568,12.3162828 L40.0778632,11.5435539 L40.0778632,10.0322876 C40.0778632,8.8416892 40.3294152,7.73412738 40.8332521,6.70960217 C41.3370889,5.68483273 42.0123719,4.79487567 42.8595895,4.03924254 C43.7070514,3.28336518 44.6798008,2.69111878 45.7788148,2.26177067 C46.8778287,1.83242256 48.02813,1.61774851 49.2304512,1.61774851 C49.8947441,1.61774851 50.4039538,1.66073216 50.7588132,1.74645525 C51.1136726,1.83242256 51.3713303,1.90398058 51.5315421,1.96137353 L51.5315421,7.04419085 C51.4167562,6.91817059 51.2335873,6.78360244 50.9820352,6.6404864 C50.7304831,6.49761459 50.4381454,6.36329067 50.1062432,6.23751463 C49.7740968,6.11125014 49.4106895,6.00550057 49.0157771,5.91953326 C48.6206206,5.8340544 48.2286389,5.79082652 47.8393438,5.79082652 C47.4156129,5.79082652 47.0607535,5.82819299 46.7745214,5.90268172 C46.4887778,5.97717044 46.259206,6.10880788 46.0877598,6.29759406 C45.9163136,6.48662445 45.7961548,6.74135146 45.7272832,7.0620193 C45.6589001,7.38244292 45.6242201,7.78297244 45.6242201,8.26360787 L45.6242201,11.5093623 L49.9689886,11.5093623 L49.9689886,14.4285876 L45.6242201,14.4285876 L45.6242201,28.3894837 L49.1447281,28.7328645 L49.1447281,31.0166154 L37.4160514,31.0166154 L37.4160514,28.7326202 L37.4160514,28.7326202 Z M53.5920712,14.256653 L51.9093587,13.707146 L51.9093587,11.5433097 L58.3317519,11.0455785 L58.3659434,11.0455785 L59.1560124,11.5262139 L59.1560124,24.0793952 C59.1560124,24.8574971 59.2014383,25.5129979 59.2927785,26.0454091 C59.3846072,26.5778203 59.5335847,27.0069241 59.7397109,27.3332092 C59.9455928,27.6594942 60.2203463,27.891264 60.5637271,28.0287629 C60.9073521,28.1660175 61.3305946,28.2346448 61.8344314,28.2346448 C62.2581623,28.2346448 62.6445268,28.1916612 62.993769,28.1056938 C63.3430112,28.0197265 63.6548869,27.913977 63.9296404,27.7882009 C64.2043939,27.6621807 64.4449558,27.5276125 64.6508378,27.3844965 C64.8567197,27.2411362 65.0284101,27.1124295 65.1656648,26.9978878 L65.1656648,14.256653 L62.9847327,13.6729544 L62.9847327,11.5262139 L69.7334109,11.0455785 L69.8025266,11.0455785 L70.729606,11.5262139 L70.729606,28.5951214 L72.6011046,28.5951214 L72.6011046,30.810245 C72.1663835,30.9135523 71.5736487,31.0398168 70.8238769,31.1883058 C70.0741052,31.3372833 69.2183397,31.4115278 68.2565804,31.4115278 C67.3981284,31.4115278 66.7741327,31.2283588 66.3848375,30.8620208 C65.9957866,30.4956828 65.801139,29.9576544 65.801139,29.2476914 L65.801139,28.6127056 C65.5378641,28.944852 65.1942391,29.2794407 64.7705082,29.6172043 C64.3472657,29.9547237 63.8778647,30.2553651 63.3625492,30.5183958 C62.8472338,30.7821591 62.2977268,30.9965889 61.7140283,31.1626622 C61.1303298,31.3287354 60.5407699,31.411772 59.9453486,31.411772 C58.8233775,31.411772 57.8621066,31.2769596 57.0605591,31.0080675 C56.2595001,30.7389312 55.6010686,30.3071409 55.0859974,29.7112311 C54.570682,29.1162982 54.1928654,28.3460116 53.9527919,27.4018365 C53.71223,26.4571729 53.5920712,25.3095582 53.5920712,23.9587479 L53.5920712,14.256653 L53.5920712,14.256653 Z M75.2805005,28.7155245 L77.2724022,28.4063352 L77.2724022,15.1839765 L75.1603417,14.4969707 L75.1603417,11.7838716 L81.3595129,10.9940469 L81.4449918,10.9940469 L82.3901438,11.7494358 L82.3901438,13.0028002 L82.3554638,13.7928691 C82.7335246,13.449244 83.1770377,13.1114804 83.6864918,12.779334 C84.1959458,12.447676 84.7537564,12.1555825 85.3609005,11.9037862 C85.9675562,11.6522342 86.6088919,11.4487945 87.2841749,11.2941998 C87.9597022,11.1396052 88.6469522,11.0621858 89.3449482,11.0621858 C90.4097705,11.0621858 91.3026583,11.2026153 92.0240999,11.4832302 C92.745053,11.7636009 93.3258208,12.2129755 93.7668918,12.831354 C94.2074742,13.449244 94.5252114,14.2507915 94.719859,15.2352638 C94.9145065,16.2194918 95.0117082,17.4218131 95.0117082,18.8412506 L95.0117082,28.3718994 L97.0729699,28.6810887 L97.0729699,31.0166154 L87.5249811,31.0166154 L87.5249811,28.7155245 L89.3280966,28.3892394 L89.3280966,18.8414948 C89.3280966,18.028713 89.2907301,17.3390207 89.2164856,16.772418 C89.1422411,16.2058152 89.0020558,15.7417871 88.7959296,15.3813105 C88.5898035,15.020834 88.3123635,14.7575591 87.9631213,14.5914859 C87.6138791,14.4254126 87.1645045,14.342376 86.6149976,14.342376 C86.2486596,14.342376 85.888183,14.3853597 85.5330794,14.471327 C85.1784642,14.5568059 84.8436313,14.6686611 84.5285807,14.8059157 C84.21353,14.9436588 83.9189943,15.0953227 83.644485,15.2611517 C83.3694873,15.4272249 83.1347868,15.5903674 82.9403834,15.7505792 L82.9403834,28.3892394 L84.9322851,28.7155245 L84.9322851,31.0166154 L75.2814774,31.0166154 L75.2814774,28.7155245 L75.2805005,28.7155245 Z M99.0123632,21.2627447 C99.0123632,19.6484153 99.2414465,18.2062648 99.699369,16.9355605 C100.157291,15.6648561 100.806931,14.5885552 101.648287,13.7069018 C102.489643,12.8257368 103.497073,12.1502096 104.670575,11.6808085 C105.844078,11.2114075 107.146287,10.9767069 108.577204,10.9767069 C111.015793,10.9767069 112.873127,11.5950854 114.149693,12.831354 C115.426014,14.0676226 116.092993,15.8189623 116.149898,18.0858617 C116.149898,18.8756864 116.13036,19.5626922 116.090063,20.1463907 C116.05001,20.7300892 115.984069,21.2512661 115.89224,21.7094328 L104.799526,21.7094328 C104.867909,22.7967239 105.039844,23.7325953 105.314842,24.5168028 C105.589351,25.3007661 105.949828,25.9447882 106.396271,26.4486251 C106.843204,26.9522177 107.363404,27.3244171 107.959313,27.5647348 C108.554246,27.8052967 109.212678,27.9254556 109.933875,27.9254556 C110.391798,27.9254556 110.861199,27.8795412 111.341834,27.7879567 C111.822958,27.6966164 112.283567,27.5793883 112.724149,27.4362722 C113.164976,27.2931562 113.571611,27.1358751 113.943566,26.9639405 C114.315766,26.7922501 114.633503,26.6261769 114.896778,26.4657208 L115.892729,28.5953656 C115.618219,28.8933205 115.223551,29.2078827 114.708236,29.5397849 C114.19292,29.8719313 113.600674,30.1752592 112.930764,30.4500127 C112.261098,30.7247662 111.53697,30.9536053 110.758624,31.1367743 C109.980034,31.3199433 109.184592,31.4115278 108.371566,31.4115278 C106.723045,31.4115278 105.30898,31.1624179 104.130105,30.6646867 C102.950985,30.1664671 101.980922,29.4679827 101.219427,28.5692335 C100.457933,27.6704843 99.899878,26.600289 99.5450186,25.358159 C99.1901592,24.116029 99.0126074,22.7508095 99.0126074,21.2625004 L99.0123632,21.2627447 Z M110.672168,19.3568103 C110.672168,19.1736413 110.675099,18.9330793 110.680716,18.6356129 C110.686822,18.337658 110.689753,18.0975845 110.689753,17.9144155 C110.689753,17.2501227 110.646769,16.643467 110.560802,16.09396 C110.474834,15.5444531 110.325857,15.0694348 110.113869,14.6689053 C109.90237,14.2683758 109.621755,13.9562558 109.272757,13.7327896 C108.923515,13.5095677 108.491236,13.398201 107.975921,13.398201 C107.529721,13.398201 107.114782,13.4780626 106.731349,13.6385187 C106.347915,13.7987305 106.012838,14.0991276 105.726606,14.5397101 C105.440374,14.980781 105.21129,15.5874367 105.039844,16.3601656 C104.868154,17.1328945 104.770708,18.1317761 104.747751,19.3568103 L110.672168,19.3568103 L110.672168,19.3568103 Z M118.743082,28.7155245 L121.009493,28.3892394 L121.009493,15.1839765 L118.932113,14.4969707 L118.932113,11.7838716 L124.684596,10.9940469 L124.770807,10.9940469 L125.783854,11.7494358 L125.783854,12.7453867 L125.698375,15.45873 L125.783854,15.45873 C125.85297,15.240881 125.973129,14.9776061 126.144819,14.6684168 C126.31651,14.3594718 126.534114,14.038804 126.797389,13.7069018 C127.060664,13.3747553 127.369609,13.0457838 127.724713,12.7194988 C128.079572,12.3932138 128.474484,12.0984338 128.909205,11.8354031 C129.344415,11.5716398 129.813816,11.3601407 130.317653,11.1996846 C130.821246,11.0392286 131.359274,10.9591227 131.931982,10.9591227 C132.229449,10.9591227 132.495654,10.9847664 132.730599,11.0362979 C132.965055,11.0880737 133.145294,11.1540145 133.27107,11.2341204 L133.27107,17.0899109 C132.893497,16.8261475 132.498341,16.6290577 132.086577,16.4974202 C131.673836,16.366027 131.153636,16.3000862 130.523535,16.3000862 C129.619168,16.3000862 128.820796,16.3977763 128.128173,16.5919354 C127.435306,16.786583 126.917304,17.0095607 126.573923,17.2618455 L126.573923,28.3721437 L130.626354,28.7326202 L130.626354,31.0166154 L118.743082,31.0166154 L118.743082,28.7155245 L118.743082,28.7155245 Z M135.022165,25.5386415 C135.022165,24.428149 135.293988,23.4666339 135.837878,22.6538521 C136.381523,21.8410702 137.148391,21.165543 138.13848,20.6275146 C139.129058,20.0897305 140.325274,19.686026 141.727616,19.4171339 C143.130202,19.1479976 144.690069,19.0019509 146.406973,18.9792379 L146.406973,18.2582848 C146.406973,17.6628635 146.361303,17.1421751 146.269718,16.6952428 C146.178134,16.2490431 146.003512,15.8770879 145.746099,15.579133 C145.488441,15.2816666 145.133582,15.0613754 144.681277,14.9182593 C144.22946,14.7751433 143.642342,14.7033411 142.921145,14.7033411 C142.256852,14.7033411 141.636031,14.7497439 141.057705,14.8410841 C140.479868,14.9326686 139.939154,15.0469661 139.435317,15.1844649 C138.93148,15.3217196 138.470627,15.470697 138.053001,15.6309088 C137.635376,15.7911206 137.254385,15.9459595 136.911004,16.0944485 L136.893908,16.0944485 L135.777798,13.7762617 C136.006637,13.5816142 136.393246,13.3298179 136.936647,13.0208728 C137.480293,12.7116836 138.132863,12.4083557 138.894113,12.1106451 C139.655364,11.8126902 140.502581,11.5582074 141.435522,11.3462198 C142.368463,11.1347207 143.333153,11.0287269 144.329592,11.0287269 C145.703115,11.0287269 146.853661,11.1606086 147.780984,11.4236393 C148.708064,11.6874026 149.449532,12.1050279 150.004656,12.6772478 C150.55978,13.249712 150.957623,13.9880051 151.198185,14.8923715 C151.438503,15.796982 151.558661,16.8901346 151.558661,18.1723175 L151.558661,28.6989171 L153.430404,28.6989171 L153.430404,30.8798492 C153.213044,30.9255194 152.926812,30.9799816 152.571952,31.0427475 C152.216849,31.1057577 151.830484,31.1687678 151.412615,31.2317779 C150.994989,31.2945438 150.568328,31.3460754 150.132874,31.3861283 C149.698153,31.4261813 149.291762,31.4462077 148.91419,31.4462077 C148.47898,31.4462077 148.112642,31.4203199 147.815176,31.3687883 C147.517221,31.317501 147.279834,31.2173686 147.102038,31.0683912 C146.924975,30.9199022 146.799198,30.7167067 146.724466,30.459049 C146.650221,30.2013913 146.612855,29.8724198 146.612855,29.471646 L146.612855,28.9392349 C146.384015,29.2025097 146.095097,29.4772632 145.745855,29.7634953 C145.396612,30.0497274 144.987291,30.315933 144.51789,30.5621121 C144.048489,30.8082912 143.521939,31.0114867 142.937752,31.1716985 C142.354053,31.3319103 141.713206,31.4120162 141.014722,31.4120162 C140.213663,31.4120162 139.449238,31.2862402 138.722423,31.0341996 C137.995364,30.7826476 137.357203,30.4104482 136.807697,29.9180899 C136.25819,29.4257317 135.823468,28.8134588 135.502556,28.0807829 C135.182133,27.3481069 135.021433,26.5006451 135.021433,25.53913 L135.022165,25.5386415 Z M140.980775,24.9036557 C140.980775,25.9794682 141.229884,26.7951808 141.727616,27.3503049 C142.225835,27.9056733 142.875475,28.1831133 143.676534,28.1831133 C143.871425,28.1831133 144.088786,28.1574696 144.329348,28.1059381 C144.569421,28.0546508 144.812914,27.9799178 145.058849,27.8827161 C145.305028,27.7855145 145.545346,27.6677978 145.780046,27.5310317 C146.014503,27.3932886 146.223804,27.238694 146.406973,27.0670036 L146.406973,21.2971804 C145.376342,21.2971804 144.512273,21.4002435 143.813788,21.6063697 C143.115304,21.8122516 142.557249,22.0840744 142.139379,22.4220822 C141.721754,22.7591132 141.423799,23.1430354 141.246492,23.5723835 C141.06894,24.0014874 140.980286,24.4452448 140.980286,24.9034115 L140.980775,24.9036557 Z M155.027394,28.7155245 L157.328485,28.3721437 L157.328485,5.56760458 L154.80466,5.12140492 L154.80466,3.00885592 L161.742125,2.1674997 L161.827603,2.1674997 L162.858234,2.92313283 L162.858234,28.3716552 L165.176421,28.715036 L165.176421,31.0166154 L155.027638,31.0166154 L155.027638,28.7155245 L155.027394,28.7155245 Z" id="Shape" fill="#FFFFFF"></path>
            <path d="M166.824942,29.0589053 L175.840275,16.643467 L178.381684,13.8788364 L171.925099,14.1706856 L171.032456,17.5707905 L168.216049,17.5707905 L168.216049,11.4749266 L183.774179,11.4749266 L184.632631,13.3637652 L175.874711,26.0195212 L173.487897,28.6122172 L180.476893,28.200209 L182.056542,24.3189803 L184.735694,24.5937338 L184.25457,31.016127 L167.786457,31.016127 L166.824942,29.0589053 Z M186.899042,21.3142762 C186.899042,19.5856494 187.168178,18.0716966 187.706207,16.772418 C188.244235,15.4731393 188.968363,14.3941518 189.878591,13.5354556 C190.788574,12.6767594 191.836057,12.0329814 193.021038,11.6036333 C194.205531,11.1742852 195.445219,10.9596112 196.738636,10.9596112 C198.215466,10.9596112 199.532085,11.1916252 200.688248,11.6551649 C201.844655,12.1187045 202.820335,12.7859281 203.616509,13.6553702 C204.411707,14.5257893 205.021537,15.5847502 205.445024,16.8327416 C205.868755,18.0802445 206.080498,19.4884477 206.080498,21.0568627 C206.080498,22.8421498 205.811851,24.3851653 205.273578,25.684444 C204.73555,26.9837227 204.014352,28.057093 203.109742,28.9043106 C202.205375,29.751284 201.157893,30.3808969 199.967294,30.7931492 C198.77694,31.2051574 197.53481,31.4110393 196.241149,31.4110393 C194.764563,31.4110393 193.447944,31.1795137 192.292025,30.715974 C191.135374,30.2519459 190.15945,29.5852108 189.363764,28.7152802 C188.568078,27.8453497 187.958491,26.7863887 187.535005,25.5383973 C187.111518,24.2904059 186.89953,22.882447 186.89953,21.314032 L186.899042,21.3142762 Z M196.54985,28.9560864 C197.728725,28.9560864 198.601342,28.3552921 199.168433,27.1529709 C199.735036,25.9508939 200.018338,24.061811 200.018338,21.4862108 C200.018338,20.1810707 199.955327,19.0275945 199.829551,18.0260265 C199.703287,17.02397 199.497405,16.1826138 199.210929,15.5014694 C198.925185,14.8200808 198.558847,14.3023231 198.111915,13.9472195 C197.665471,13.5921159 197.115964,13.4148083 196.463394,13.4148083 C195.272795,13.4148083 194.385769,14.0156026 193.801826,15.2179238 C193.217639,16.4195124 192.92579,18.3088394 192.92579,20.8846839 C192.92579,22.1895797 192.994173,23.3430559 193.131916,24.3448682 C193.269171,25.346192 193.483601,26.1877924 193.775938,26.8691811 C194.067788,27.5505697 194.442674,28.0683274 194.900596,28.4231868 C195.358274,28.7780461 195.907781,28.955598 196.549117,28.955598 L196.54985,28.9560864 Z M208.948192,28.7155245 L210.940094,28.4063352 L210.940094,15.1839765 L208.828033,14.4969707 L208.828033,11.7838716 L215.027205,10.9940469 L215.113172,10.9940469 L216.057591,11.7494358 L216.057591,13.0028002 L216.0234,13.7928691 C216.400972,13.449244 216.844729,13.1114804 217.354428,12.779334 C217.863637,12.447676 218.421692,12.1555825 219.028348,11.9037862 C219.635248,11.6522342 220.276339,11.4487945 220.951622,11.2941998 C221.62715,11.1396052 222.313911,11.0621858 223.012396,11.0621858 C224.077218,11.0621858 224.970106,11.2026153 225.691547,11.4832302 C226.412745,11.7636009 226.993268,12.2129755 227.434339,12.831354 C227.875166,13.449244 228.192903,14.2507915 228.387306,15.2352638 C228.581954,16.2194918 228.6794,17.4218131 228.6794,18.8412506 L228.6794,28.3718994 L230.739929,28.6810887 L230.739929,31.0166154 L221.192428,31.0166154 L221.192428,28.7155245 L222.9953,28.3892394 L222.9953,18.8414948 C222.9953,18.028713 222.958178,17.3390207 222.883689,16.772418 C222.809444,16.2058152 222.66877,15.7417871 222.463133,15.3813105 C222.257251,15.020834 221.979567,14.7575591 221.630324,14.5914859 C221.281082,14.4254126 220.831708,14.342376 220.282201,14.342376 C219.915863,14.342376 219.555386,14.3853597 219.200283,14.471327 C218.845667,14.5568059 218.510834,14.6686611 218.196028,14.8059157 C217.880977,14.9436588 217.586442,15.0953227 217.311932,15.2611517 C217.036935,15.4272249 216.802234,15.5903674 216.607587,15.7505792 L216.607587,28.3892394 L218.599488,28.7155245 L218.599488,31.0166154 L208.948925,31.0166154 L208.948925,28.7155245 L208.948192,28.7155245 Z M232.680055,21.2629889 C232.680055,19.6486595 232.908894,18.2062648 233.366816,16.9353162 C233.824495,15.6648561 234.474134,14.5883109 235.315734,13.707146 C236.157091,12.8254926 237.16452,12.1502096 238.338023,11.6808085 C239.511281,11.2114075 240.813491,10.9767069 242.244651,10.9767069 C244.683241,10.9767069 246.540574,11.5950854 247.81714,12.831354 C249.093706,14.0676226 249.760441,15.8189623 249.817345,18.0858617 C249.817345,18.8756864 249.797807,19.5626922 249.75751,20.1463907 C249.717457,20.7300892 249.651761,21.2512661 249.560176,21.7094328 L238.466974,21.7094328 C238.535357,22.7967239 238.707291,23.7325953 238.982289,24.5168028 C239.256798,25.3007661 239.617275,25.9447882 240.064207,26.4486251 C240.510407,26.9522177 241.031339,27.3244171 241.626517,27.5647348 C242.221694,27.8052967 242.879881,27.9254556 243.601078,27.9254556 C244.059001,27.9254556 244.528402,27.8795412 245.009281,27.7879567 C245.490405,27.6966164 245.951014,27.5793883 246.391597,27.4362722 C246.832668,27.2931562 247.239059,27.1358751 247.611014,26.9639405 C247.983213,26.7922501 248.300706,26.6261769 248.564225,26.4657208 L249.560176,28.5953656 C249.285423,28.8933205 248.89051,29.2078827 248.375195,29.5397849 C247.859879,29.8719313 247.267633,30.1752592 246.597967,30.4500127 C245.928301,30.7247662 245.204173,30.9536053 244.425583,31.1367743 C243.647237,31.3199433 242.851551,31.4115278 242.038769,31.4115278 C240.390248,31.4115278 238.976183,31.1624179 237.797308,30.6646867 C236.618188,30.1664671 235.648125,29.4679827 234.88663,28.5692335 C234.12538,27.6704843 233.567081,26.600289 233.212222,25.358159 C232.857362,24.116029 232.679811,22.7508095 232.679811,21.2625004 L232.680055,21.2629889 Z M244.33986,19.3568103 C244.33986,19.1736413 244.342302,18.9330793 244.348164,18.6356129 C244.353781,18.337658 244.356711,18.0975845 244.356711,17.9144155 C244.356711,17.2501227 244.313484,16.643467 244.22776,16.09396 C244.141793,15.5444531 243.993304,15.0694348 243.781317,14.6689053 C243.569329,14.2683758 243.288958,13.9562558 242.939716,13.7327896 C242.590474,13.5095677 242.158195,13.398201 241.643368,13.398201 C241.196924,13.398201 240.781741,13.4780626 240.398307,13.6385187 C240.014874,13.7987305 239.680285,14.0991276 239.393809,14.5397101 C239.107332,14.980781 238.878493,15.5874367 238.706559,16.3601656 C238.534868,17.1328945 238.437911,18.1317761 238.414709,19.3568103 L244.339616,19.3568103 L244.33986,19.3568103 Z" id="Shape" fill="#FFFFFF"></path>
            <g id="Group">
                <g id="Clipped">
                    <mask id="mask-2" fill="white">
                        <use xlink:href="#path-1"></use>
                    </mask>
                    <g id="a"></g>
                    <path d="M26.6845467,4.49863036 C25.7557578,6.77822948 25.0506793,12.4352205 25.2426404,14.0515037 C25.3862449,15.2596863 25.5540277,16.7619163 25.3281193,17.833577 C25.4814928,14.488667 22.8316481,12.3702566 19.6608708,11.3562331 C19.7820065,9.13744606 21.0871467,5.57932739 26.3502023,4.26392983 C26.7031078,4.17356646 26.7790619,4.26686053 26.6847909,4.49838614" id="Shape" fill="#FFFFFF" mask="url(#mask-2)"></path>
                </g>
            </g>
            <g id="Group">
                <g id="Clipped">
                    <mask id="mask-4" fill="white">
                        <use xlink:href="#path-3"></use>
                    </mask>
                    <g id="c"></g>
                    <path d="M34.2318417,17.4858001 C32.5828324,16.4458887 33.8557347,15.0997187 31.4703861,14.7236118 C30.2517017,14.5314064 28.9370368,15.7864803 27.7488807,17.04131 C26.6112791,18.2428986 25.5899288,19.4444872 24.8782563,19.3761041 C25.9587091,15.0015402 22.6128222,12.4034712 18.7496661,11.371375 C15.0374413,10.379576 10.0694099,8.27191153 3.15783336,0.455724444 C2.86403031,0.125531814 2.24198842,-0.438140221 2.34163235,0.679434835 C2.46814107,3.65361076 2.88332411,6.29564025 3.5285674,8.6497281 C6.43240643,10.9764627 11.1288593,14.3345608 15.3207427,15.4391919 C15.3207427,15.4391919 15.5170998,15.5495818 15.3077987,15.6057536 C13.7423144,15.4482283 11.104681,14.7209253 3.86095806,9.77511836 C4.49643233,11.7704392 5.30921419,13.5386305 6.26169293,15.1085109 C8.74937202,16.5406481 10.8511751,17.5976553 13.7625851,18.0506933 C13.8930015,18.070964 13.8341432,18.1337299 13.7410933,18.1264031 C11.6871584,17.9920792 9.06955142,17.2264328 7.02978156,16.2886076 C7.96516453,17.6294046 9.01044889,18.8073033 10.1397468,19.8391553 C11.5289004,20.2387079 12.6198549,20.4399496 14.1484611,20.2982989 C13.1740021,20.5386166 11.7958386,20.5078442 10.6462701,20.2880414 C13.0054866,22.3109597 15.6973381,23.7365029 18.4956718,24.7109619 C9.77682794,25.3410632 5.69338062,30.6204819 3.19984012,30.9865757 C4.77265117,31.7226708 6.7513647,30.9785163 8.65339147,30.2343617 C10.5730025,29.4833689 12.4139729,28.732376 13.6819908,29.5021742 C15.5710736,30.647591 13.5540167,32.8749259 16.8046557,34.6807279 C16.2492873,32.0572595 19.5863821,28.633709 22.8736549,27.2611627 C28.8801323,28.1323144 30.6468583,22.7217467 31.2237185,19.7671088 C31.8013114,16.8119825 34.5459155,17.9696105 34.2313533,17.4865328" id="Shape" fill="#FFFFFF" mask="url(#mask-4)"></path>
                </g>
            </g>
            <g id="Group">
                <g id="Clipped">
                    <mask id="mask-6" fill="white">
                        <use xlink:href="#path-5"></use>
                    </mask>
                    <g id="f"></g>
                    <path d="M26.6845467,4.49863036 C25.7557578,6.77822948 25.0506793,12.4352205 25.2426404,14.0515037 C25.3862449,15.2596863 25.5540277,16.7619163 25.3281193,17.833577 C25.4814928,14.488667 22.8316481,12.3702566 19.6608708,11.3562331 C19.7820065,9.13744606 21.0871467,5.57932739 26.3502023,4.26392983 C26.7031078,4.17356646 26.7790619,4.26686053 26.6847909,4.49838614" id="Shape" fill="#FFFFFF" mask="url(#mask-6)"></path>
                </g>
            </g>
            <g id="Group">
                <g id="Clipped">
                    <mask id="mask-8" fill="white">
                        <use xlink:href="#path-7"></use>
                    </mask>
                    <g id="h"></g>
                    <path d="M34.2318417,17.4858001 C32.5828324,16.4458887 33.8557347,15.0997187 31.4703861,14.7236118 C30.2517017,14.5314064 28.9370368,15.7864803 27.7488807,17.04131 C26.6112791,18.2428986 25.5899288,19.4444872 24.8782563,19.3761041 C25.9587091,15.0015402 22.6128222,12.4034712 18.7496661,11.371375 C15.0374413,10.379576 10.0694099,8.27191153 3.15783336,0.455724444 C2.86403031,0.125531814 2.24198842,-0.438140221 2.34163235,0.679434835 C2.46814107,3.65361076 2.88332411,6.29564025 3.5285674,8.6497281 C6.43240643,10.9764627 11.1288593,14.3345608 15.3207427,15.4391919 C15.3207427,15.4391919 15.5170998,15.5495818 15.3077987,15.6057536 C13.7423144,15.4482283 11.104681,14.7209253 3.86095806,9.77511836 C4.49643233,11.7704392 5.30921419,13.5386305 6.26169293,15.1085109 C8.74937202,16.5406481 10.8511751,17.5976553 13.7625851,18.0506933 C13.8930015,18.070964 13.8341432,18.1337299 13.7410933,18.1264031 C11.6871584,17.9920792 9.06955142,17.2264328 7.02978156,16.2886076 C7.96516453,17.6294046 9.01044889,18.8073033 10.1397468,19.8391553 C11.5289004,20.2387079 12.6198549,20.4399496 14.1484611,20.2982989 C13.1740021,20.5386166 11.7958386,20.5078442 10.6462701,20.2880414 C13.0054866,22.3109597 15.6973381,23.7365029 18.4956718,24.7109619 C9.77682794,25.3410632 5.69338062,30.6204819 3.19984012,30.9865757 C4.77265117,31.7226708 6.7513647,30.9785163 8.65339147,30.2343617 C10.5730025,29.4833689 12.4139729,28.732376 13.6819908,29.5021742 C15.5710736,30.647591 13.5540167,32.8749259 16.8046557,34.6807279 C16.2492873,32.0572595 19.5863821,28.633709 22.8736549,27.2611627 C28.8801323,28.1323144 30.6468583,22.7217467 31.2237185,19.7671088 C31.8013114,16.8119825 34.5459155,17.9696105 34.2313533,17.4865328" id="Shape" fill="#FFFFFF" mask="url(#mask-8)"></path>
                </g>
            </g>
        </g>
    </g>
</svg>