<?xml version="1.0" encoding="UTF-8"?>
<svg width="248px" height="35px" viewBox="0 0 248 35" version="1.1" xmlns="http://www.w3.org/2000/svg" xmlns:xlink="http://www.w3.org/1999/xlink">
    <!-- Generator: Sketch 43.2 (39069) - http://www.bohemiancoding.com/sketch -->
    <title>logo_hr_blue_svg</title>
    <desc>Created with Sketch.</desc>
    <defs>
        <polyline id="path-1" points="0 0.0171065494 38.9772727 0.0171065494 38.9772727 34.6935484 0 34.6935484"></polyline>
        <polyline id="path-3" points="0 0.0171065494 38.9772727 0.0171065494 38.9772727 34.6935484 0 34.6935484"></polyline>
        <radialGradient cx="75.175%" cy="72.031%" fx="75.175%" fy="72.031%" r="33.454%" gradientTransform="translate(0.751750,0.720310),scale(1.000000,0.921018),translate(-0.751750,-0.720310)" id="radialGradient-5">
            <stop stop-color="#26BEE8" offset="0%"></stop>
            <stop stop-color="#0971AA" offset="100%"></stop>
        </radialGradient>
        <polyline id="path-6" points="0 0.0171065494 38.9772727 0.0171065494 38.9772727 34.6935484 0 34.6935484"></polyline>
        <polyline id="path-8" points="0 0.0171065494 38.9772727 0.0171065494 38.9772727 34.6935484 0 34.6935484"></polyline>
    </defs>
    <g id="Page-1" stroke="none" stroke-width="1" fill="none" fill-rule="evenodd">
        <g id="logo_hr_blue_svg" transform="translate(-2.000000, 0.000000)">
            <path d="M37.4396383,28.7507331 L40.1033724,28.3729228 L40.1033724,14.4374389 L37.2849462,14.4374389 L37.2849462,12.3240469 L40.1031281,11.5508309 L40.1031281,10.0386119 C40.1031281,8.84726295 40.3548387,7.73900293 40.8589932,6.71383187 C41.3631476,5.68841642 42.0388563,4.79789834 42.886608,4.04178886 C43.7346041,3.285435 44.7079668,2.69281525 45.8076735,2.26319648 C46.9073803,1.83357771 48.0584066,1.61876833 49.2614858,1.61876833 C49.9261975,1.61876833 50.4357283,1.66177908 50.7908113,1.74755621 C51.1458944,1.83357771 51.4037146,1.90518084 51.5640274,1.96260997 L51.5640274,7.04863148 C51.4491691,6.92253177 51.2658847,6.78787879 51.014174,6.64467253 C50.7624633,6.50171065 50.4699413,6.36730205 50.1378299,6.24144673 C49.8054741,6.11510264 49.4418377,6.00928641 49.0466764,5.92326491 C48.6512708,5.83773216 48.259042,5.79447703 47.8695015,5.79447703 C47.4455034,5.79447703 47.0904203,5.83186706 46.8040078,5.90640274 C46.5180841,5.98093842 46.2883675,6.11265885 46.1168133,6.30156403 C45.945259,6.49071359 45.8250244,6.74560117 45.7561095,7.06647116 C45.6876833,7.38709677 45.6529814,7.78787879 45.6529814,8.2688172 L45.6529814,11.5166178 L50.0004888,11.5166178 L50.0004888,14.4376833 L45.6529814,14.4376833 L45.6529814,28.4073803 L49.1757087,28.7509775 L49.1757087,31.0361681 L37.4396383,31.0361681 L37.4396383,28.7507331 L37.4396383,28.7507331 Z M53.6258553,14.2656403 L51.9420821,13.7157869 L51.9420821,11.5505865 L58.3685239,11.0525415 L58.402737,11.0525415 L59.193304,11.53348 L59.193304,24.0945748 C59.193304,24.8731672 59.2387586,25.5290811 59.3301564,26.061828 C59.422043,26.5945748 59.5711144,27.0239492 59.7773705,27.3504399 C59.9833822,27.6769306 60.2583089,27.9088465 60.6019062,28.0464321 C60.9457478,28.1837732 61.3692571,28.2524438 61.8734115,28.2524438 C62.2974096,28.2524438 62.6840176,28.209433 63.03348,28.1234115 C63.3829423,28.03739 63.6950147,27.9315738 63.9699413,27.8057185 C64.244868,27.6796188 64.4855816,27.5449658 64.6915934,27.4017595 C64.8976051,27.2583089 65.0694037,27.129521 65.2067449,27.0149071 L65.2067449,14.2656403 L63.0244379,13.6815738 L63.0244379,11.53348 L69.7773705,11.0525415 L69.8465298,11.0525415 L70.7741935,11.53348 L70.7741935,28.6131476 L72.6468719,28.6131476 L72.6468719,30.8296676 C72.2118768,30.9330401 71.6187683,31.0593842 70.8685239,31.2079668 C70.1182796,31.3570381 69.2619746,31.4313294 68.299609,31.4313294 C67.4406158,31.4313294 66.8162268,31.248045 66.4266862,30.8814761 C66.03739,30.5149071 65.8426197,29.9765396 65.8426197,29.266129 L65.8426197,28.6307429 C65.5791789,28.9630987 65.2353372,29.2978983 64.8113392,29.6358749 C64.3878299,29.973607 63.9181329,30.2744379 63.4024927,30.5376344 C62.8868524,30.801564 62.336999,31.016129 61.7529326,31.1823069 C61.1688661,31.3484848 60.5789345,31.4315738 59.9831378,31.4315738 C58.8604594,31.4315738 57.8985826,31.2966764 57.0965298,31.0276149 C56.2949658,30.7583089 55.6361193,30.3262463 55.1207234,29.7299609 C54.6050831,29.134653 54.2270283,28.3638807 53.9868035,27.4191105 C53.7460899,26.4738514 53.6258553,25.3255132 53.6258553,23.9738514 L53.6258553,14.2656403 L53.6258553,14.2656403 Z M75.327957,28.7336266 L77.3211144,28.4242424 L77.3211144,15.1935484 L75.2077224,14.5061095 L75.2077224,11.7913001 L81.4108016,11.0009775 L81.4963343,11.0009775 L82.4420821,11.7568426 L82.4420821,13.0109971 L82.4073803,13.801564 C82.7856794,13.4577224 83.2294721,13.1197458 83.7392473,12.78739 C84.2490225,12.455523 84.8071848,12.1632454 85.4147116,11.9112903 C86.0217498,11.6595797 86.6634897,11.4560117 87.3391984,11.3013196 C88.0151515,11.1466276 88.7028348,11.0691593 89.4012708,11.0691593 C90.4667644,11.0691593 91.3602151,11.2096774 92.0821114,11.4904692 C92.8035191,11.7710166 93.384653,12.2206745 93.826002,12.8394428 C94.2668622,13.4577224 94.5847996,14.2597752 94.7795699,15.244868 C94.9743402,16.2297165 95.0716031,17.4327957 95.0716031,18.8531281 L95.0716031,28.3897849 L97.1341642,28.6991691 L97.1341642,31.0361681 L87.5801564,31.0361681 L87.5801564,28.7336266 L89.3844086,28.4071359 L89.3844086,18.8533724 C89.3844086,18.0400782 89.3470186,17.3499511 89.2727273,16.7829912 C89.198436,16.2160313 89.0581623,15.7517107 88.8519062,15.3910068 C88.64565,15.030303 88.3680352,14.7668622 88.0185728,14.6006843 C87.6691105,14.4345064 87.2194526,14.3514174 86.6695992,14.3514174 C86.3030303,14.3514174 85.9423265,14.3944282 85.586999,14.4804497 C85.2321603,14.5659824 84.8971163,14.6779081 84.5818671,14.8152493 C84.2666178,14.9530792 83.9718964,15.1048387 83.6972141,15.2707722 C83.422043,15.4369501 83.1871945,15.6001955 82.9926686,15.7605083 L82.9926686,28.4071359 L84.985826,28.7336266 L84.985826,31.0361681 L75.3289345,31.0361681 L75.3289345,28.7336266 L75.327957,28.7336266 Z M99.0747801,21.2761486 C99.0747801,19.6608016 99.3040078,18.2177419 99.762219,16.9462366 C100.22043,15.6747312 100.870479,14.5977517 101.712366,13.7155425 C102.554252,12.8338221 103.562317,12.157869 104.736559,11.688172 C105.910802,11.2184751 107.213832,10.9836266 108.64565,10.9836266 C111.085777,10.9836266 112.944282,11.6023949 114.221652,12.8394428 C115.498778,14.0764907 116.166178,15.8289345 116.223118,18.097263 C116.223118,18.8875855 116.203568,19.5750244 116.163245,20.1590909 C116.123167,20.7431574 116.057185,21.2646628 115.965298,21.7231183 L104.865591,21.7231183 C104.934018,22.8110948 105.106061,23.7475562 105.381232,24.5322581 C105.655914,25.3167155 106.016618,25.9611437 106.463343,26.4652981 C106.910557,26.9692082 107.431085,27.3416422 108.02737,27.5821114 C108.622678,27.822825 109.281525,27.9430596 110.003177,27.9430596 C110.461388,27.9430596 110.931085,27.8971163 111.412023,27.8054741 C111.893451,27.7140762 112.35435,27.5967742 112.79521,27.4535679 C113.236315,27.3103617 113.643206,27.1529814 114.015396,26.9809384 C114.38783,26.8091398 114.705767,26.6429619 114.969208,26.4824047 L115.965787,28.613392 C115.691105,28.9115347 115.296188,29.2262952 114.780547,29.5584066 C114.264907,29.8907625 113.672287,30.1942815 113.001955,30.4692082 C112.331867,30.7441349 111.607283,30.9731183 110.828446,31.1564027 C110.049365,31.3396872 109.253421,31.4313294 108.439883,31.4313294 C106.790323,31.4313294 105.375367,31.1820626 104.195748,30.6840176 C103.015885,30.1854839 102.04521,29.4865591 101.283236,28.5872434 C100.521261,27.6879277 99.9628543,26.6170577 99.6077713,25.3741447 C99.2526882,24.1312317 99.0750244,22.7651515 99.0750244,21.2759042 L99.0747801,21.2761486 Z M110.741935,19.3690127 C110.741935,19.1857283 110.744868,18.9450147 110.750489,18.6473607 C110.756598,18.349218 110.759531,18.1089932 110.759531,17.9257087 C110.759531,17.2609971 110.71652,16.6539589 110.630499,16.1041056 C110.544477,15.5542522 110.395406,15.0789345 110.183284,14.6781525 C109.971652,14.2773705 109.69086,13.9650538 109.341642,13.7414467 C108.99218,13.5180841 108.559629,13.4066471 108.043988,13.4066471 C107.597507,13.4066471 107.182307,13.4865591 106.798631,13.6471163 C106.414956,13.8074291 106.079668,14.1080156 105.793255,14.5488759 C105.506843,14.9902248 105.277615,15.597263 105.106061,16.370479 C104.934262,17.143695 104.836755,18.1432063 104.813783,19.3690127 L110.741935,19.3690127 L110.741935,19.3690127 Z M118.817937,28.7336266 L121.085777,28.4071359 L121.085777,15.1935484 L119.007087,14.5061095 L119.007087,11.7913001 L124.763196,11.0009775 L124.849462,11.0009775 L125.863148,11.7568426 L125.863148,12.7534213 L125.777615,15.4684751 L125.863148,15.4684751 C125.932307,15.2504888 126.052542,14.9870479 126.22434,14.6776637 C126.396139,14.3685239 126.613881,14.047654 126.877322,13.7155425 C127.140762,13.3831867 127.449902,13.0540078 127.80523,12.7275171 C128.160313,12.4010264 128.555474,12.1060606 128.990469,11.8428641 C129.425953,11.5789345 129.89565,11.3673021 130.399804,11.2067449 C130.903715,11.0461877 131.442082,10.9660313 132.015152,10.9660313 C132.312805,10.9660313 132.579179,10.9916911 132.814272,11.0432551 C133.048876,11.0950635 133.229228,11.1610459 133.355083,11.2412023 L133.355083,17.1006843 C132.977273,16.8367546 132.581867,16.6395406 132.169844,16.5078201 C131.756843,16.3763441 131.236315,16.3103617 130.605816,16.3103617 C129.70088,16.3103617 128.902004,16.4081134 128.208944,16.6023949 C127.51564,16.7971652 126.997312,17.0202835 126.653715,17.2727273 L126.653715,28.3900293 L130.7087,28.7507331 L130.7087,31.0361681 L118.817937,31.0361681 L118.817937,28.7336266 L118.817937,28.7336266 Z M135.107283,25.554741 C135.107283,24.4435484 135.379277,23.4814272 135.923509,22.6681329 C136.467498,21.8548387 137.234848,21.1788856 138.225562,20.6405181 C139.216764,20.1023949 140.413734,19.698436 141.81696,19.4293744 C143.22043,19.1600684 144.781281,19.0139296 146.499267,18.9912023 L146.499267,18.2697947 C146.499267,17.673998 146.453568,17.1529814 146.361926,16.7057674 C146.270283,16.2592864 146.095552,15.8870968 145.837977,15.5889541 C145.580156,15.2913001 145.225073,15.07087 144.772483,14.9276637 C144.320381,14.7844575 143.732893,14.71261 143.011241,14.71261 C142.34653,14.71261 141.725318,14.759042 141.146628,14.8504399 C140.568426,14.9420821 140.02737,15.0564516 139.523216,15.1940371 C139.019062,15.3313783 138.557918,15.4804497 138.140029,15.6407625 C137.722141,15.8010753 137.340909,15.9560117 136.997312,16.1045943 L136.980205,16.1045943 L135.863392,13.7849462 C136.092375,13.590176 136.479228,13.3382209 137.022972,13.0290811 C137.56696,12.719697 138.219941,12.4161779 138.981672,12.1182796 C139.743402,11.8201369 140.591153,11.5654936 141.524682,11.3533724 C142.458211,11.14174 143.423509,11.0356794 144.420577,11.0356794 C145.794966,11.0356794 146.946237,11.1676442 147.874145,11.4308407 C148.801808,11.6947703 149.543744,12.1126588 150.099218,12.6852395 C150.654692,13.2580645 151.052786,13.9968231 151.2935,14.9017595 C151.533969,15.8069404 151.654203,16.900782 151.654203,18.1837732 L151.654203,28.7170088 L153.527126,28.7170088 L153.527126,30.8993157 C153.309629,30.9450147 153.023216,30.9995112 152.668133,31.0623167 C152.312805,31.1253666 151.926197,31.1884164 151.508065,31.2514663 C151.090176,31.3142717 150.663245,31.3658358 150.227517,31.405914 C149.792522,31.4459922 149.385875,31.4660313 149.008065,31.4660313 C148.572581,31.4660313 148.206012,31.4401271 147.908358,31.388563 C147.610215,31.3372434 147.372678,31.2370479 147.19477,31.0879765 C147.017595,30.9393939 146.89174,30.7360704 146.81696,30.4782502 C146.742669,30.2204301 146.705279,29.8912512 146.705279,29.4902248 L146.705279,28.957478 C146.476295,29.2209189 146.187195,29.4958456 145.837732,29.7822581 C145.48827,30.0686706 145.07869,30.335044 144.608993,30.5813783 C144.139296,30.8277126 143.612414,31.0310362 143.027859,31.191349 C142.443793,31.3516618 141.802542,31.4318182 141.103617,31.4318182 C140.302053,31.4318182 139.537146,31.3059629 138.809873,31.0537634 C138.082356,30.8020528 137.443793,30.4296188 136.893939,29.9369501 C136.344086,29.4442815 135.909091,28.8316227 135.587977,28.0984848 C135.267351,27.365347 135.106549,26.5173509 135.106549,25.5552297 L135.107283,25.554741 Z M141.069648,24.9193548 C141.069648,25.9958456 141.318915,26.8120723 141.81696,27.3675464 C142.315494,27.9232649 142.965543,28.2008798 143.767107,28.2008798 C143.962121,28.2008798 144.179619,28.1752199 144.420332,28.1236559 C144.660557,28.0723363 144.904203,27.9975562 145.150293,27.9002933 C145.396628,27.8030303 145.637097,27.6852395 145.871945,27.5483871 C146.106549,27.4105572 146.315982,27.2558651 146.499267,27.0840665 L146.499267,21.3106061 C145.467986,21.3106061 144.603372,21.4137341 143.904448,21.6199902 C143.205523,21.826002 142.647116,22.0979961 142.228983,22.436217 C141.811095,22.7734604 141.512952,23.1576246 141.335533,23.5872434 C141.157869,24.0166178 141.069159,24.4606549 141.069159,24.9191105 L141.069648,24.9193548 Z M155.125122,28.7336266 L157.427664,28.3900293 L157.427664,5.57111437 L154.902248,5.12463343 L154.902248,3.01075269 L161.844086,2.16886608 L161.929619,2.16886608 L162.960899,2.92497556 L162.960899,28.3895406 L165.280547,28.7331378 L165.280547,31.0361681 L155.125367,31.0361681 L155.125367,28.7336266 L155.125122,28.7336266 Z" id="Shape" fill="#08689D"></path>
            <path d="M166.930108,29.0772239 L175.951124,16.6539589 L178.494135,13.8875855 L172.03348,14.1796188 L171.140274,17.5818671 L168.322092,17.5818671 L168.322092,11.4821603 L183.890029,11.4821603 L184.749022,13.3721896 L175.985582,26.0359238 L173.597263,28.6302542 L180.590665,28.2179863 L182.17131,24.3343109 L184.852151,24.6092375 L184.370723,31.0356794 L167.892229,31.0356794 L166.930108,29.0772239 Z M187.016862,21.3277126 C187.016862,19.5979961 187.286168,18.083089 187.824536,16.7829912 C188.362903,15.4828935 189.087488,14.4032258 189.998289,13.5439883 C190.908847,12.6847507 191.956989,12.040567 193.142717,11.6109482 C194.327957,11.1813294 195.568426,10.96652 196.862659,10.96652 C198.34042,10.96652 199.657869,11.1986804 200.814761,11.6625122 C201.971896,12.1263441 202.948192,12.7939883 203.744868,13.6639785 C204.540567,14.5349462 205.150782,15.5945748 205.574536,16.8433529 C205.998534,18.0916422 206.210411,19.5007331 206.210411,21.0701369 C206.210411,22.8565494 205.941593,24.4005376 205.402981,25.7006354 C204.864614,27.0007331 204.142962,28.0747801 203.237781,28.9225318 C202.332845,29.7700391 201.284702,30.4000489 200.093353,30.8125611 C198.902248,31.2248289 197.659335,31.4308407 196.364858,31.4308407 C194.887341,31.4308407 193.569892,31.1991691 192.413245,30.7353372 C191.255865,30.2710166 190.279326,29.6038612 189.483138,28.7333822 C188.68695,27.8629032 188.076979,26.8032747 187.653226,25.5544966 C187.229472,24.3057185 187.017351,22.8968719 187.017351,21.3274682 L187.016862,21.3277126 Z M196.673754,28.9743402 C197.853372,28.9743402 198.72654,28.3731672 199.293988,27.170088 C199.860948,25.9672532 200.144428,24.0769795 200.144428,21.4997556 C200.144428,20.1937928 200.081378,19.0395894 199.955523,18.03739 C199.829179,17.0347019 199.623167,16.1928152 199.33651,15.5112414 C199.050587,14.8294233 198.684018,14.3113392 198.236804,13.9560117 C197.790078,13.6006843 197.240225,13.4232649 196.587243,13.4232649 C195.395894,13.4232649 194.508309,14.0244379 193.923998,15.2275171 C193.339443,16.4298631 193.04741,18.3203812 193.04741,20.8978495 C193.04741,22.2035679 193.115836,23.3577713 193.253666,24.3602151 C193.391007,25.3621701 193.605572,26.2043011 193.898094,26.8861193 C194.190127,27.5679374 194.565249,28.0860215 195.02346,28.4411046 C195.481427,28.7961877 196.031281,28.9738514 196.673021,28.9738514 L196.673754,28.9743402 Z M209.079912,28.7336266 L211.073069,28.4242424 L211.073069,15.1935484 L208.959677,14.5061095 L208.959677,11.7913001 L215.162757,11.0009775 L215.248778,11.0009775 L216.193793,11.7568426 L216.193793,13.0109971 L216.15958,13.801564 C216.53739,13.4577224 216.981427,13.1197458 217.491447,12.78739 C218.000978,12.455523 218.559384,12.1632454 219.166422,11.9112903 C219.773705,11.6595797 220.4152,11.4560117 221.090909,11.3013196 C221.766862,11.1466276 222.454057,11.0691593 223.152981,11.0691593 C224.218475,11.0691593 225.111926,11.2096774 225.833822,11.4904692 C226.555474,11.7710166 227.136364,12.2206745 227.577713,12.8394428 C228.018817,13.4577224 228.336755,14.2597752 228.531281,15.244868 C228.726051,16.2297165 228.823558,17.4327957 228.823558,18.8531281 L228.823558,28.3897849 L230.885386,28.6991691 L230.885386,31.0361681 L221.331867,31.0361681 L221.331867,28.7336266 L223.135875,28.4071359 L223.135875,18.8533724 C223.135875,18.0400782 223.098729,17.3499511 223.024194,16.7829912 C222.949902,16.2160313 222.80914,15.7517107 222.603372,15.3910068 C222.397361,15.030303 222.119501,14.7668622 221.770039,14.6006843 C221.420577,14.4345064 220.970919,14.3514174 220.421065,14.3514174 C220.054497,14.3514174 219.693793,14.3944282 219.338465,14.4804497 C218.983627,14.5659824 218.648583,14.6779081 218.333578,14.8152493 C218.018328,14.9530792 217.723607,15.1048387 217.448925,15.2707722 C217.173754,15.4369501 216.938905,15.6001955 216.744135,15.7605083 L216.744135,28.4071359 L218.737292,28.7336266 L218.737292,31.0361681 L209.080645,31.0361681 L209.080645,28.7336266 L209.079912,28.7336266 Z M232.826735,21.276393 C232.826735,19.6610459 233.055718,18.2177419 233.51393,16.9459922 C233.971896,15.6747312 234.621945,14.5975073 235.464076,13.7157869 C236.305963,12.8335777 237.314027,12.157869 238.48827,11.688172 C239.662268,11.2184751 240.965298,10.9836266 242.397361,10.9836266 C244.837488,10.9836266 246.695992,11.6023949 247.973363,12.8394428 C249.250733,14.0764907 249.917889,15.8289345 249.974829,18.097263 C249.974829,18.8875855 249.955279,19.5750244 249.914956,20.1590909 C249.874878,20.7431574 249.80914,21.2646628 249.717498,21.7231183 L238.617302,21.7231183 C238.685728,22.8110948 238.857771,23.7475562 239.132942,24.5322581 C239.407625,25.3167155 239.768328,25.9611437 240.215543,26.4652981 C240.662023,26.9692082 241.183284,27.3416422 241.778837,27.5821114 C242.374389,27.822825 243.032991,27.9430596 243.754643,27.9430596 C244.212854,27.9430596 244.682551,27.8971163 245.163734,27.8054741 C245.645161,27.7140762 246.106061,27.5967742 246.546921,27.4535679 C246.98827,27.3103617 247.394917,27.1529814 247.767107,26.9809384 C248.139541,26.8091398 248.457234,26.6429619 248.720919,26.4824047 L249.717498,28.613392 C249.442571,28.9115347 249.04741,29.2262952 248.531769,29.5584066 C248.016129,29.8907625 247.423509,30.1942815 246.753421,30.4692082 C246.083333,30.7441349 245.358749,30.9731183 244.579668,31.1564027 C243.800831,31.3396872 243.004643,31.4313294 242.191349,31.4313294 C240.541789,31.4313294 239.126833,31.1820626 237.947214,30.6840176 C236.767351,30.1854839 235.796676,29.4865591 235.034702,28.5872434 C234.272972,27.6879277 233.714321,26.6170577 233.359238,25.3741447 C233.004154,24.1312317 232.826491,22.7651515 232.826491,21.2759042 L232.826735,21.276393 Z M244.493891,19.3690127 C244.493891,19.1857283 244.496334,18.9450147 244.502199,18.6473607 C244.50782,18.349218 244.510753,18.1089932 244.510753,17.9257087 C244.510753,17.2609971 244.467498,16.6539589 244.38172,16.1041056 C244.295699,15.5542522 244.147116,15.0789345 243.934995,14.6781525 C243.722874,14.2773705 243.442326,13.9650538 243.092864,13.7414467 C242.743402,13.5180841 242.31085,13.4066471 241.795699,13.4066471 C241.348974,13.4066471 240.933529,13.4865591 240.549853,13.6471163 C240.166178,13.8074291 239.831378,14.1080156 239.544721,14.5488759 C239.258065,14.9902248 239.029081,15.597263 238.857038,16.370479 C238.685239,17.143695 238.588221,18.1432063 238.565005,19.3690127 L244.493646,19.3690127 L244.493891,19.3690127 Z" id="Shape" fill="#1BA2D9"></path>
            <g id="Group">
                <g id="Clipped">
                    <mask id="mask-2" fill="white">
                        <use xlink:href="#path-1"></use>
                    </mask>
                    <g id="a"></g>
                    <path d="M26.7013685,4.50146628 C25.7719941,6.78250244 25.0664712,12.4430596 25.2585533,14.0603617 C25.4022483,15.269306 25.5701369,16.7724829 25.344086,17.8448192 C25.4975562,14.4978006 22.8460411,12.3780547 19.6732649,11.363392 C19.794477,9.14320626 21.1004399,5.58284457 26.3668133,4.26661779 C26.7199413,4.17619746 26.7959433,4.26955034 26.7016129,4.5012219" id="Shape" fill="#0971AA" mask="url(#mask-2)"></path>
                </g>
            </g>
            <g id="Group">
                <g id="Clipped">
                    <mask id="mask-4" fill="white">
                        <use xlink:href="#path-3"></use>
                    </mask>
                    <g id="c"></g>
                    <path d="M34.2534213,17.4968231 C32.6033724,16.4562561 33.8770772,15.1092375 31.4902248,14.7328935 C30.2707722,14.540567 28.9552786,15.7964321 27.7663734,17.0520528 C26.6280547,18.2543988 25.6060606,19.4567449 24.8939394,19.3883187 C25.9750733,15.0109971 22.6270772,12.4112903 18.7614858,11.3785435 C15.0469208,10.3861193 10.0757576,8.2771261 3.15982405,0.45601173 C2.86583578,0.125610948 2.24340176,-0.438416422 2.3431085,0.679863148 C2.46969697,3.65591398 2.88514174,6.29960899 3.53079179,8.65518084 C6.43646139,10.9833822 11.1358749,14.3435973 15.3304008,15.4489247 C15.3304008,15.4489247 15.5268817,15.5593842 15.3174487,15.6155914 C13.7509775,15.4579668 11.1116813,14.7302053 3.86339198,9.78128055 C4.49926686,11.7778592 5.31256109,13.5471652 6.26564027,15.1180352 C8.75488759,16.5510753 10.8580156,17.6087488 13.771261,18.0620723 C13.9017595,18.0823558 13.8428641,18.1451613 13.7497556,18.1378299 C11.6945259,18.0034213 9.07526882,17.2372923 7.0342131,16.2988759 C7.97018573,17.6405181 9.01612903,18.8191593 10.1461388,19.8516618 C11.5361681,20.2514663 12.6278104,20.4528348 14.1573803,20.3110948 C13.1823069,20.551564 11.8032747,20.5207722 10.6529814,20.3008309 C13.0136852,22.3250244 15.7072336,23.7514663 18.5073314,24.7265396 C9.7829912,25.3570381 5.6969697,30.6397849 3.20185728,31.0061095 C4.77565982,31.7426686 6.75562072,30.998045 8.65884653,30.2534213 C10.5796676,29.501955 12.4217986,28.7504888 13.6906158,29.5207722 C15.5808895,30.666911 13.5625611,32.89565 16.8152493,34.7025904 C16.2595308,32.0774682 19.5987292,28.6517595 22.8880743,27.278348 C28.8983382,28.1500489 30.6661779,22.7360704 31.2434018,19.7795699 C31.8213587,16.8225806 34.5676931,17.9809384 34.2529326,17.4975562" id="Shape" fill="url(#radialGradient-5)" mask="url(#mask-4)"></path>
                </g>
            </g>
            <g id="Group">
                <g id="Clipped">
                    <mask id="mask-7" fill="white">
                        <use xlink:href="#path-6"></use>
                    </mask>
                    <g id="f"></g>
                    <path d="M26.7013685,4.50146628 C25.7719941,6.78250244 25.0664712,12.4430596 25.2585533,14.0603617 C25.4022483,15.269306 25.5701369,16.7724829 25.344086,17.8448192 C25.4975562,14.4978006 22.8460411,12.3780547 19.6732649,11.363392 C19.794477,9.14320626 21.1004399,5.58284457 26.3668133,4.26661779 C26.7199413,4.17619746 26.7959433,4.26955034 26.7016129,4.5012219" id="Shape" fill="#0971AA" mask="url(#mask-7)"></path>
                </g>
            </g>
            <g id="Group">
                <g id="Clipped">
                    <mask id="mask-9" fill="white">
                        <use xlink:href="#path-8"></use>
                    </mask>
                    <g id="h"></g>
                    <path d="M34.2534213,17.4968231 C32.6033724,16.4562561 33.8770772,15.1092375 31.4902248,14.7328935 C30.2707722,14.540567 28.9552786,15.7964321 27.7663734,17.0520528 C26.6280547,18.2543988 25.6060606,19.4567449 24.8939394,19.3883187 C25.9750733,15.0109971 22.6270772,12.4112903 18.7614858,11.3785435 C15.0469208,10.3861193 10.0757576,8.2771261 3.15982405,0.45601173 C2.86583578,0.125610948 2.24340176,-0.438416422 2.3431085,0.679863148 C2.46969697,3.65591398 2.88514174,6.29960899 3.53079179,8.65518084 C6.43646139,10.9833822 11.1358749,14.3435973 15.3304008,15.4489247 C15.3304008,15.4489247 15.5268817,15.5593842 15.3174487,15.6155914 C13.7509775,15.4579668 11.1116813,14.7302053 3.86339198,9.78128055 C4.49926686,11.7778592 5.31256109,13.5471652 6.26564027,15.1180352 C8.75488759,16.5510753 10.8580156,17.6087488 13.771261,18.0620723 C13.9017595,18.0823558 13.8428641,18.1451613 13.7497556,18.1378299 C11.6945259,18.0034213 9.07526882,17.2372923 7.0342131,16.2988759 C7.97018573,17.6405181 9.01612903,18.8191593 10.1461388,19.8516618 C11.5361681,20.2514663 12.6278104,20.4528348 14.1573803,20.3110948 C13.1823069,20.551564 11.8032747,20.5207722 10.6529814,20.3008309 C13.0136852,22.3250244 15.7072336,23.7514663 18.5073314,24.7265396 C9.7829912,25.3570381 5.6969697,30.6397849 3.20185728,31.0061095 C4.77565982,31.7426686 6.75562072,30.998045 8.65884653,30.2534213 C10.5796676,29.501955 12.4217986,28.7504888 13.6906158,29.5207722 C15.5808895,30.666911 13.5625611,32.89565 16.8152493,34.7025904 C16.2595308,32.0774682 19.5987292,28.6517595 22.8880743,27.278348 C28.8983382,28.1500489 30.6661779,22.7360704 31.2434018,19.7795699 C31.8213587,16.8225806 34.5676931,17.9809384 34.2529326,17.4975562" id="Shape" fill="url(#radialGradient-5)" mask="url(#mask-9)"></path>
                </g>
            </g>
        </g>
    </g>
</svg>